<?xml version="1.0" encoding="UTF-8" standalone="no"?>
<svg
   xmlns:dc="http://purl.org/dc/elements/1.1/"
   xmlns:cc="http://creativecommons.org/ns#"
   xmlns:rdf="http://www.w3.org/1999/02/22-rdf-syntax-ns#"
   xmlns:svg="http://www.w3.org/2000/svg"
   xmlns="http://www.w3.org/2000/svg"
   id="svg14"
   version="1.1"
   viewBox="0 0 768.27606 489.89548"
   height="489.89548pt"
   width="768.27606pt">
  <metadata
     id="metadata18">
    <rdf:RDF>
      <cc:Work
         rdf:about="">
        <dc:format>image/svg+xml</dc:format>
        <dc:type
           rdf:resource="http://purl.org/dc/dcmitype/StillImage" />
      </cc:Work>
    </rdf:RDF>
  </metadata>
  <defs
     id="defs5">
    <clipPath
       id="clip1">
      <path
         id="path2"
         d="M 116.67188,36.738281 H 885 V 526.72656 H 116.67188 Z m 0,0" />
    </clipPath>
  </defs>
  <g
     transform="translate(-116.68619,-36.820312)"
     id="surface1">
    <g
       style="clip-rule:nonzero"
       id="g9"
       clip-path="url(#clip1)">
      <path
         id="path7"
         d="m 582.51172,522.45312 c 2.66406,0.19922 5.3164,0.29297 7.98047,0.29297 2.66015,0.004 5.3164,-0.0898 7.97656,-0.29297 2.65625,-0.20703 5.3125,-0.50781 7.97656,-1.07421 -2.66406,-0.57422 -5.32031,-0.8711 -7.97656,-1.08594 C 595.80859,520.09766 593.15234,520 590.49219,520 c -2.66407,0 -5.31641,0.0977 -7.98047,0.30469 -2.65235,0.20312 -5.3125,0.5 -7.97266,1.07422 2.66016,0.5664 5.32031,0.85937 7.97266,1.07421 z M 548.71484,517.25 c 2.65625,0.19922 5.31641,0.29297 7.97657,0.29297 2.65625,0.0117 5.3164,-0.0898 7.96875,-0.29297 2.66406,-0.20703 5.32421,-0.50781 7.98046,-1.07422 -2.65625,-0.57422 -5.3164,-0.86719 -7.98046,-1.07812 -2.65235,-0.20313 -5.3125,-0.29688 -7.96875,-0.29688 -2.66016,0 -5.32032,0.0937 -7.97657,0.30078 -2.66015,0.20703 -5.3164,0.5 -7.97656,1.07422 2.66016,0.56641 5.31641,0.85938 7.97656,1.07422 z m -8.35156,9.17187 c 2.65625,0.19922 5.31641,0.29297 7.97656,0.29297 2.65235,0.0117 5.31641,-0.0859 7.96875,-0.29297 2.66407,-0.20703 5.32422,-0.5 7.98047,-1.07421 -2.65625,-0.57422 -5.3164,-0.86719 -7.98047,-1.07813 -2.65234,-0.19922 -5.3164,-0.29687 -7.96875,-0.29687 -2.66015,0 -5.32031,0.0976 -7.97656,0.30078 -2.66016,0.20703 -5.32422,0.5 -7.97656,1.07422 2.65234,0.5664 5.3164,0.86328 7.97656,1.07421 z m 27.07813,-47.24218 c 2.66406,0.20703 5.32421,0.29297 7.97656,0.30468 2.66015,0 5.3164,-0.0976 7.97656,-0.29687 2.66406,-0.21484 5.31641,-0.50781 7.98047,-1.08203 -2.66406,-0.57422 -5.31641,-0.86719 -7.98047,-1.07813 -2.66016,-0.20312 -5.31641,-0.29687 -7.97656,-0.29687 -2.65235,0.008 -5.3125,0.0937 -7.97656,0.30078 -2.65235,0.21484 -5.31641,0.50781 -7.97657,1.07422 2.66016,0.5664 5.32422,0.85937 7.97657,1.07422 z m -33.79688,-5.19922 c 2.66016,0.20312 5.31641,0.29297 7.97656,0.30078 2.65625,0 5.31641,-0.0977 7.97657,-0.29688 2.65234,-0.21093 5.3164,-0.5039 7.98046,-1.07812 -2.66406,-0.57422 -5.32812,-0.86719 -7.98046,-1.08203 -2.66016,-0.19922 -5.32032,-0.29688 -7.97657,-0.29688 -2.66015,0.0117 -5.3164,0.0977 -7.97656,0.30469 -2.66406,0.21094 -5.31641,0.50781 -7.97656,1.07422 2.66015,0.56641 5.3125,0.85937 7.97656,1.07422 z m 62.04688,-15.13281 c 2.65625,0.19921 5.3125,0.29296 7.97265,0.29296 2.66406,0.008 5.31641,-0.0898 7.98047,-0.28906 2.65234,-0.21094 5.31641,-0.5039 7.97266,-1.07812 -2.65625,-0.57422 -5.32032,-0.86719 -7.97266,-1.08203 -2.66406,-0.19922 -5.31641,-0.29688 -7.98047,-0.29688 -2.66015,0.0117 -5.3164,0.0977 -7.97265,0.30469 -2.66407,0.20703 -5.31641,0.50781 -7.98047,1.07422 2.66406,0.5664 5.3164,0.86328 7.98047,1.07422 z m -8.35157,9.17187 c 2.65625,0.19922 5.3125,0.29297 7.97266,0.29297 2.65625,0.008 5.31641,-0.0859 7.98047,-0.28516 2.65234,-0.21484 5.3164,-0.50781 7.97265,-1.08203 -2.65625,-0.57031 -5.32031,-0.86719 -7.97265,-1.08203 -2.66406,-0.19531 -5.32422,-0.29297 -7.98047,-0.29297 -2.66016,0.008 -5.31641,0.0977 -7.97266,0.30469 -2.66406,0.21094 -5.3164,0.50391 -7.98047,1.07031 2.66407,0.56641 5.31641,0.86328 7.98047,1.07422 z m -33.80078,-5.19922 c 2.65235,0.19531 5.31641,0.29297 7.96875,0.29297 2.66406,0.008 5.32422,-0.0859 7.97656,-0.28516 2.66407,-0.21484 5.32422,-0.50781 7.97657,-1.08203 -2.65235,-0.57422 -5.3125,-0.87109 -7.97657,-1.08203 -2.65234,-0.19922 -5.3125,-0.29297 -7.97656,-0.29297 -2.65234,0.004 -5.3164,0.0937 -7.96875,0.30078 -2.66406,0.21485 -5.32422,0.50782 -7.97656,1.07422 2.65234,0.56641 5.3125,0.85938 7.97656,1.07422 z m 12.74219,41.28516 c 2.66016,0.19531 5.32031,0.29297 7.97656,0.29297 2.66016,0 5.32422,-0.0859 7.97656,-0.29297 2.66407,-0.20703 5.31641,-0.51172 7.97657,-1.07422 -2.66016,-0.57813 -5.3125,-0.87109 -7.97657,-1.08203 -2.65234,-0.19922 -5.3164,-0.29688 -7.97656,-0.29688 -2.65625,0 -5.3164,0.0977 -7.97656,0.29688 -2.65234,0.21094 -5.31641,0.5039 -7.96875,1.08203 2.65234,0.5625 5.31641,0.85937 7.96875,1.07422 z m -33.80078,-5.20313 c 2.66406,0.19922 5.3164,0.29297 7.98047,0.29297 2.66015,0 5.3164,-0.0859 7.97656,-0.29297 2.65234,-0.20703 5.3125,-0.50781 7.97656,-1.07422 -2.66406,-0.57031 -5.32422,-0.86718 -7.97656,-1.08203 -2.66016,-0.19531 -5.31641,-0.29297 -7.97656,-0.29297 -2.66407,0 -5.31641,0.0977 -7.98047,0.29297 -2.66016,0.21485 -5.31641,0.51172 -7.97656,1.08203 2.66015,0.56641 5.3164,0.86329 7.97656,1.07422 z m -8.35156,9.17188 c 2.66406,0.19922 5.3164,0.29687 7.98046,0.29687 2.65235,0 5.3125,-0.0898 7.97266,-0.29687 2.65625,-0.20313 5.31641,-0.50391 7.98047,-1.07031 -2.66406,-0.57422 -5.32422,-0.8711 -7.98047,-1.08204 -2.66016,-0.19921 -5.32031,-0.29296 -7.97266,-0.29296 -2.66406,0 -5.3164,0.0937 -7.98046,0.29296 -2.66016,0.21094 -5.31641,0.50782 -7.97657,1.08204 2.66016,0.5664 5.31641,0.85937 7.97657,1.07031 z M 490.32812,502.875 c 2.66016,0.19922 5.31641,0.29687 7.97657,0.29687 2.66015,0 5.32031,-0.0898 7.97656,-0.29687 2.66016,-0.20313 5.32031,-0.50781 7.97656,-1.07422 -2.65625,-0.57422 -5.3164,-0.86719 -7.97656,-1.08203 -2.65625,-0.19922 -5.31641,-0.29297 -7.97656,-0.29297 -2.66016,0 -5.31641,0.0937 -7.97657,0.29297 -2.65625,0.21484 -5.3164,0.50781 -7.97656,1.08203 2.66016,0.56641 5.32031,0.85938 7.97656,1.07422 z m 154.23047,4.44531 c 2.66407,0.19922 5.31641,0.29297 7.97657,0.29297 2.66015,0 5.3164,-0.0898 7.97656,-0.29297 2.66406,-0.20703 5.3164,-0.50781 7.98047,-1.07422 -2.66407,-0.57422 -5.31641,-0.86718 -7.98047,-1.08203 -2.66016,-0.19922 -5.31641,-0.29687 -7.97656,-0.29687 -2.66016,0 -5.3125,0.0976 -7.97657,0.29687 -2.65234,0.21485 -5.3164,0.50781 -7.97656,1.08203 2.66016,0.56641 5.32422,0.85938 7.97656,1.07422 z m -33.79687,-5.20312 c 2.65234,0.19922 5.3164,0.29297 7.97656,0.29297 2.65234,0 5.31641,-0.0859 7.97656,-0.29297 2.65235,-0.20703 5.31641,-0.50782 7.96875,-1.07422 -2.65234,-0.57422 -5.3164,-0.86719 -7.96875,-1.07813 -2.66015,-0.20312 -5.32422,-0.29687 -7.97656,-0.29687 -2.66016,0 -5.32422,0.0937 -7.97656,0.29687 -2.66406,0.21094 -5.32422,0.50391 -7.97656,1.07813 2.65234,0.5664 5.3125,0.85937 7.97656,1.07422 z m -8.35156,9.17578 c 2.65234,0.19531 5.3125,0.29297 7.97656,0.29297 2.65234,0 5.3164,-0.0899 7.96875,-0.29297 2.66015,-0.20703 5.32422,-0.51172 7.97656,-1.07813 -2.65234,-0.57031 -5.31641,-0.86718 -7.97656,-1.07812 -2.65235,-0.19922 -5.31641,-0.29297 -7.96875,-0.29297 -2.66406,0 -5.32422,0.0937 -7.97656,0.29297 -2.66407,0.21094 -5.32422,0.50781 -7.97657,1.07812 2.65235,0.56641 5.3125,0.86328 7.97657,1.07813 z m 25.91796,-22.32031 c 2.65625,0.19921 5.32032,0.29296 7.97266,0.29296 2.66406,0 5.32422,-0.0859 7.98047,-0.29296 2.66016,-0.20704 5.31641,-0.50782 7.97266,-1.07422 -2.65625,-0.57422 -5.3125,-0.8711 -7.97266,-1.08203 -2.65625,-0.20704 -5.31641,-0.29688 -7.98047,-0.29688 -2.65234,0 -5.31641,0.0977 -7.97266,0.29688 -2.66015,0.21093 -5.3164,0.50781 -7.97265,1.08203 2.65625,0.5664 5.3125,0.85937 7.97265,1.07422 z m -33.80078,-5.20313 c 2.66016,0.19922 5.31641,0.29297 7.97657,0.29297 2.66406,0 5.3164,-0.0859 7.97656,-0.29297 2.65625,-0.21094 5.3164,-0.50781 7.97656,-1.07422 -2.66016,-0.57031 -5.32031,-0.86719 -7.97656,-1.07812 -2.66016,-0.20703 -5.3125,-0.29688 -7.97656,-0.29688 -2.66016,0 -5.31641,0.0977 -7.97657,0.29688 -2.66406,0.21093 -5.3164,0.50781 -7.97656,1.07812 2.66016,0.56641 5.3125,0.86328 7.97656,1.07422 z m -8.35156,9.17188 c 2.66016,0.19921 5.31641,0.29687 7.97656,0.29687 2.65625,0 5.31641,-0.0898 7.97657,-0.29687 2.65234,-0.20313 5.3164,-0.50391 7.97656,-1.07032 -2.66016,-0.57422 -5.32422,-0.86718 -7.97656,-1.08203 -2.66016,-0.20703 -5.32032,-0.29297 -7.97657,-0.29297 -2.66015,0 -5.3164,0.0937 -7.97656,0.29297 -2.66406,0.21485 -5.31641,0.50781 -7.98047,1.08203 2.66406,0.56641 5.31641,0.85938 7.98047,1.07032 z m -33.79687,-5.19922 c 2.65234,0.19922 5.3164,0.29687 7.96875,0.29687 2.66015,0 5.32031,-0.0898 7.97656,-0.29687 2.66015,-0.20313 5.32422,-0.50782 7.97656,-1.07032 -2.65234,-0.57812 -5.31641,-0.87109 -7.97656,-1.08593 -2.65625,-0.20313 -5.31641,-0.29297 -7.97656,-0.29297 -2.65235,0 -5.31641,0.0937 -7.96875,0.29297 -2.66407,0.21484 -5.32422,0.50781 -7.98047,1.08593 2.65625,0.5625 5.3164,0.85547 7.98047,1.07032 z m -106.25,15.98047 c 2.66015,0.20312 5.32031,0.29296 7.98046,0.30078 2.65625,0 5.31641,-0.0977 7.97657,-0.29688 2.65625,-0.21094 5.3125,-0.5039 7.97265,-1.07812 -2.66015,-0.57422 -5.3164,-0.86719 -7.97265,-1.08203 -2.66016,-0.19922 -5.32032,-0.29688 -7.97657,-0.28516 -2.66015,0 -5.32031,0.0937 -7.98046,0.29297 -2.65625,0.21094 -5.3125,0.50781 -7.97266,1.07422 2.66016,0.5664 5.31641,0.85937 7.97266,1.07422 z m -33.79688,-5.20313 c 2.65625,0.20703 5.31641,0.29297 7.97266,0.30469 2.66015,0 5.32031,-0.0977 7.98047,-0.29688 2.65625,-0.21484 5.3164,-0.50781 7.97265,-1.08203 -2.65625,-0.57422 -5.3164,-0.86719 -7.97265,-1.07812 -2.66016,-0.19922 -5.32032,-0.29688 -7.98047,-0.28907 -2.65625,0 -5.31641,0.0937 -7.97266,0.29297 -2.66016,0.21485 -5.32031,0.50782 -7.97656,1.07422 2.65625,0.56641 5.3164,0.86328 7.97656,1.07422 z m -8.35156,9.17578 c 2.65625,0.20313 5.3164,0.29297 7.97265,0.30078 2.66016,0 5.31641,-0.0976 7.97657,-0.29297 2.66015,-0.21484 5.32031,-0.51171 7.97656,-1.08593 -2.65625,-0.57032 -5.31641,-0.86719 -7.97656,-1.07813 -2.66016,-0.19922 -5.31641,-0.29297 -7.97657,-0.28906 -2.65625,0 -5.3164,0.0977 -7.97265,0.29687 -2.66016,0.21094 -5.32031,0.50391 -7.98047,1.07032 2.66016,0.57031 5.32031,0.86328 7.98047,1.07812 z m -29.04688,-37.57812 c 2.66016,0.20312 5.32032,0.29297 7.97657,0.30078 2.66015,0 5.32031,-0.0977 7.98046,-0.29297 2.65625,-0.21484 5.3125,-0.50781 7.97266,-1.08203 -2.66016,-0.57422 -5.31641,-0.86719 -7.97266,-1.08203 -2.66015,-0.19922 -5.32031,-0.29297 -7.98046,-0.28516 -2.65625,0 -5.31641,0.0937 -7.97657,0.29297 -2.65625,0.21094 -5.3125,0.50781 -7.97265,1.07422 2.66015,0.5664 5.3164,0.86719 7.97265,1.07422 z m -33.79687,-5.19922 c 2.65625,0.20312 5.3164,0.29297 7.97265,0.30078 2.66016,0 5.32032,-0.0977 7.97657,-0.29688 2.66015,-0.21093 5.32031,-0.5039 7.97656,-1.07812 -2.65625,-0.57813 -5.31641,-0.87109 -7.97656,-1.08203 -2.65625,-0.19922 -5.31641,-0.29688 -7.97657,-0.28906 -2.65625,0 -5.3164,0.0976 -7.97265,0.29296 -2.66016,0.21485 -5.32031,0.51172 -7.97656,1.07813 2.65625,0.5625 5.3164,0.86719 7.97656,1.07422 z m 19.89062,-11.16406 c 2.66016,0.20703 5.31641,0.29687 7.97266,0.30468 2.66016,0 5.32031,-0.0976 7.98047,-0.29297 2.66015,-0.21484 5.3164,-0.51171 7.97656,-1.08593 -2.66016,-0.57032 -5.31641,-0.86719 -7.97656,-1.07813 -2.66016,-0.19922 -5.32031,-0.29297 -7.98047,-0.28906 -2.65625,0 -5.3125,0.0977 -7.97266,0.29687 -2.66015,0.21094 -5.3164,0.50391 -7.97656,1.07032 2.66016,0.57031 5.31641,0.86328 7.97656,1.07422 z m 68.8711,31.62109 c 2.66015,0.20703 5.32031,0.29687 7.97656,0.30078 2.66016,0 5.31641,-0.0937 7.97656,-0.29297 2.66016,-0.21484 5.32031,-0.50781 7.97656,-1.08203 -2.65625,-0.57422 -5.3164,-0.87109 -7.97656,-1.08203 -2.66015,-0.19922 -5.3164,-0.29297 -7.97656,-0.29297 -2.65625,0.004 -5.31641,0.0937 -7.97656,0.30078 -2.65625,0.21485 -5.31641,0.50781 -7.97657,1.07422 2.66016,0.56641 5.32032,0.85938 7.97657,1.07422 z m -33.80078,-5.20313 c 2.66015,0.20704 5.32031,0.29688 7.97656,0.30079 2.66015,0 5.32031,-0.0937 7.97656,-0.29297 2.66016,-0.21094 5.31641,-0.50782 7.97656,-1.08203 -2.66015,-0.57032 -5.3164,-0.86719 -7.97656,-1.08204 -2.65625,-0.19531 -5.31641,-0.29296 -7.97656,-0.29296 -2.65625,0.008 -5.31641,0.0976 -7.97656,0.30468 -2.66016,0.21094 -5.31641,0.50391 -7.97266,1.07032 2.65625,0.57031 5.3125,0.86328 7.97266,1.07421 z m -8.35157,9.17579 c 2.65625,0.20312 5.32032,0.29296 7.97657,0.30078 2.66015,0 5.32031,-0.0977 7.97656,-0.29297 2.65625,-0.21485 5.3164,-0.51172 7.97656,-1.08203 -2.66016,-0.57422 -5.32031,-0.86719 -7.97656,-1.08203 -2.65625,-0.19922 -5.31641,-0.29297 -7.97656,-0.29297 -2.65625,0.008 -5.32032,0.0937 -7.97657,0.30078 -2.66015,0.21094 -5.3164,0.50781 -7.97265,1.07422 2.65625,0.5664 5.3125,0.85937 7.97265,1.07422 z m -33.80078,-5.19922 c 2.66016,0.20312 5.31641,0.29297 7.97656,0.30078 2.66016,0 5.32032,-0.0977 7.97657,-0.29688 2.66015,-0.21093 5.3164,-0.5039 7.97656,-1.08203 -2.66016,-0.57422 -5.31641,-0.86719 -7.97656,-1.07812 -2.65625,-0.20313 -5.31641,-0.29688 -7.97657,-0.29688 -2.66015,0.008 -5.3164,0.0937 -7.97656,0.30078 -2.65625,0.21485 -5.3164,0.51172 -7.97656,1.07422 2.66016,0.56641 5.32031,0.85938 7.97656,1.07813 z m 154.23047,4.4414 c 2.66406,0.20703 5.31641,0.29297 7.97656,0.30078 2.66016,0 5.31641,-0.0937 7.97657,-0.29687 2.66406,-0.21094 5.3164,-0.50391 7.98046,-1.07813 -2.66406,-0.57421 -5.3164,-0.86718 -7.98046,-1.08203 -2.66016,-0.19922 -5.31641,-0.29687 -7.97657,-0.29687 -2.66015,0.0117 -5.3125,0.0976 -7.97656,0.30469 -2.66016,0.21484 -5.31641,0.50781 -7.97656,1.07421 2.66015,0.56641 5.3164,0.85938 7.97656,1.07422 z M 474.375,483.38672 c 2.66016,0.20703 5.32031,0.29297 7.97656,0.30469 2.66016,0 5.32031,-0.0977 7.97656,-0.29688 2.66016,-0.21484 5.31641,-0.50781 7.97657,-1.08203 -2.66016,-0.57422 -5.31641,-0.86719 -7.97657,-1.07813 -2.65625,-0.19921 -5.3164,-0.29687 -7.97656,-0.29687 -2.65625,0.008 -5.3164,0.0977 -7.97656,0.30078 -2.66016,0.21484 -5.31641,0.50781 -7.97266,1.07422 2.65625,0.56641 5.3125,0.86328 7.97266,1.07422 z m -8.35156,9.17578 c 2.65625,0.20703 5.3164,0.29297 7.97656,0.30078 2.66016,0 5.31641,-0.0937 7.97656,-0.29297 2.65625,-0.21484 5.31641,-0.50781 7.97656,-1.08594 -2.66015,-0.57031 -5.32031,-0.86718 -7.97656,-1.07812 -2.66015,-0.19922 -5.3164,-0.29297 -7.97656,-0.29297 -2.66016,0.004 -5.32031,0.0937 -7.97656,0.30078 -2.66016,0.21094 -5.31641,0.50781 -7.97657,1.07031 2.66016,0.57032 5.31641,0.86329 7.97657,1.07813 z m 25.92187,-22.32031 c 2.65625,0.19922 5.31641,0.29687 7.97656,0.29687 2.66016,0.004 5.32032,-0.0898 7.97657,-0.28906 2.66015,-0.21094 5.3164,-0.50781 7.97265,-1.08203 -2.65625,-0.57422 -5.3125,-0.86719 -7.97265,-1.08203 -2.65625,-0.19922 -5.31641,-0.29297 -7.97657,-0.29297 -2.66015,0.008 -5.32031,0.0937 -7.97656,0.30078 -2.65625,0.21484 -5.3164,0.50781 -7.97656,1.07422 2.66016,0.5664 5.32031,0.85937 7.97656,1.07422 z m -33.80078,-6.16407 c 2.66016,0.26563 5.31641,0.39063 7.97656,0.39063 2.65625,0.004 5.31641,-0.11719 7.97657,-0.38672 2.66015,-0.27734 5.32031,-0.66406 7.97656,-1.41797 -2.65625,-0.75 -5.31641,-1.13672 -7.97656,-1.42187 -2.66016,-0.25391 -5.32032,-0.37891 -7.97657,-0.37891 -2.66015,0 -5.3164,0.125 -7.97656,0.39063 -2.65625,0.27734 -5.31641,0.66796 -7.97656,1.41015 2.66015,0.75391 5.32031,1.13281 7.97656,1.41406 z m -8.35156,10.13672 c 2.65625,0.20313 5.3164,0.29297 7.97656,0.29297 2.65625,0.008 5.31641,-0.0898 7.97266,-0.28515 2.66015,-0.21485 5.32031,-0.50782 7.98047,-1.08204 -2.66016,-0.57421 -5.32032,-0.86718 -7.98047,-1.08203 -2.65625,-0.19922 -5.31641,-0.29297 -7.97266,-0.29297 -2.66016,0.008 -5.32031,0.0937 -7.97656,0.30079 -2.66016,0.21093 -5.32031,0.50781 -7.98047,1.07421 2.66016,0.56641 5.32031,0.85938 7.98047,1.07422 z m -17.85156,-21.82812 c 2.66015,0.19922 5.32031,0.29297 7.97656,0.29297 2.66015,0 5.32031,-0.0859 7.98047,-0.29297 2.65625,-0.20703 5.3125,-0.50781 7.97265,-1.07422 -2.66015,-0.57031 -5.3164,-0.86719 -7.97265,-1.08203 -2.66016,-0.19531 -5.32032,-0.29297 -7.98047,-0.29297 -2.65625,0 -5.31641,0.0977 -7.97656,0.29297 -2.65625,0.21484 -5.31641,0.51172 -7.97266,1.08203 2.65625,0.56641 5.31641,0.86328 7.97266,1.07422 z m -15.95313,16.6289 c 2.66016,0.19532 5.32031,0.29297 7.98047,0.29297 2.65625,0.008 5.31641,-0.0898 7.97266,-0.28906 2.66015,-0.21094 5.32031,-0.50391 7.97656,-1.07812 -2.65625,-0.57813 -5.31641,-0.8711 -7.97656,-1.08204 -2.65625,-0.20312 -5.31641,-0.29687 -7.97266,-0.29687 -2.66016,0.008 -5.32031,0.0937 -7.98047,0.30078 -2.65625,0.21484 -5.31641,0.51172 -7.97266,1.07813 2.65625,0.5625 5.31641,0.85937 7.97266,1.07421 z m 182.02344,-220.0039 v -12.95703 c 2.00781,-0.32813 4.11719,0.69922 6.20312,0.94922 1.78907,0.20703 3.58203,-0.16797 5.32813,-0.625 1.41797,-0.36719 2.85156,-0.79297 4.07812,-1.59766 1.10938,-0.72656 2.04297,-1.75 3.29297,-2.20703 l -0.25781,-0.31641 c -3.32813,-0.10156 -6.91016,-0.28515 -9.55469,-2.3125 -1.20703,-0.92187 -2.13672,-2.17187 -3.35547,-3.07812 -1.65625,-1.22657 -3.70703,-1.71875 -5.76953,-2.03125 -0.16015,-0.85157 -0.91797,-1.5 -1.82422,-1.5 -1.02343,0 -1.85937,0.83984 -1.85937,1.86328 v 23.8125 l -17.96875,42.59375 c -0.23047,0.52734 0.19922,1.11719 0.76953,1.0664 l 18.99219,-1.68359 h 0.14062 l 18.98047,1.68359 c 0.58203,0.0508 1.00391,-0.53906 0.78125,-1.0664 z m 18.46875,47.74219 -20.23438,-1.78516 h -0.18359 l -20.23828,1.78516 c -0.53516,0.0547 -0.94141,0.5 -0.94141,1.03906 v 4.21484 c 0,0.57031 0.46094,1.03906 1.03516,1.03906 h 40.47656 c 0.57031,0 1.03516,-0.46875 1.03516,-1.03906 v -4.21484 c 0,-0.53906 -0.41407,-0.98438 -0.94922,-1.03906 z M 395.55469,249.01172 v -12.95703 c 2.00781,-0.32813 4.12109,0.69922 6.20703,0.94922 1.78515,0.20703 3.58203,-0.16797 5.3164,-0.625 1.42188,-0.36719 2.85157,-0.79297 4.08204,-1.59766 1.10937,-0.72656 2.04687,-1.75 3.29296,-2.20703 l -0.25,-0.31641 c -3.33593,-0.10156 -6.91406,-0.28515 -9.5625,-2.3125 -1.20312,-0.92187 -2.13281,-2.17187 -3.35156,-3.07812 -1.65625,-1.22657 -3.70312,-1.71875 -5.76953,-2.03125 -0.16797,-0.85157 -0.92187,-1.5 -1.82422,-1.5 -1.02734,0 -1.85937,0.83984 -1.85937,1.86328 v 23.8125 l -17.97266,42.59375 c -0.22266,0.52734 0.19922,1.11719 0.77734,1.0664 l 18.98829,-1.68359 h 0.13671 l 18.98829,1.68359 c 0.57812,0.0508 1,-0.53906 0.77343,-1.0664 z m 18.46875,47.74219 -20.23438,-1.78516 h -0.18359 l -20.23828,1.78516 c -0.53516,0.0547 -0.94532,0.5 -0.94532,1.03906 v 4.21484 c 0,0.57031 0.46094,1.03906 1.03907,1.03906 h 40.47265 c 0.57422,0 1.03907,-0.46875 1.03907,-1.03906 v -4.21484 c 0,-0.53906 -0.41016,-0.98438 -0.94922,-1.03906 z m 83.05078,-143.41407 v -16.20703 c 2.50781,-0.41797 5.15234,0.875 7.76562,1.1836 2.22657,0.26562 4.47657,-0.21094 6.65235,-0.76954 1.77734,-0.46484 3.5664,-1 5.10156,-2 1.39062,-0.90625 2.56641,-2.19531 4.125,-2.76953 l -0.31641,-0.39453 c -4.16797,-0.125 -8.64453,-0.35547 -11.96093,-2.89453 -1.50782,-1.15234 -2.66797,-2.71484 -4.19141,-3.84765 -2.07422,-1.53516 -4.63672,-2.15235 -7.21875,-2.53516 -0.21094,-1.07422 -1.15234,-1.875 -2.28516,-1.875 -1.28125,0 -2.32422,1.03516 -2.32422,2.32422 v 29.78515 l -22.48437,53.28907 c -0.28125,0.67187 0.24609,1.39843 0.96875,1.33593 l 23.75781,-2.10937 h 0.16797 l 23.75391,2.10937 c 0.72656,0.0625 1.25781,-0.66406 0.97265,-1.33593 z m 26.36719,183.85157 0.0117,0.0117 z m -2.72266,-124.11719 -25.3125,-2.24219 c -0.0781,-0.008 -0.15625,-0.008 -0.23047,0 l -25.32031,2.24219 c -0.67188,0.0586 -1.1836,0.625 -1.1836,1.29297 v 5.27734 c 0,0.71094 0.58204,1.29297 1.29688,1.29297 h 50.64062 c 0.71094,0 1.29297,-0.58203 1.29297,-1.29297 v -5.27734 c 0,-0.66797 -0.51562,-1.23438 -1.18359,-1.29297 z m 162.12891,213.85156 c -5.86329,-2.59766 -11.84375,-5.22266 -18.21875,-5.96484 -5.27735,-0.60938 -10.66016,0.0937 -15.91016,-0.73438 -10.27734,-1.61719 -18.76172,-8.85156 -28.54688,-12.34375 v -61.70312 l -4.64062,-2.46875 v -37.26172 h -8.33594 v 5.14062 h -6.35937 v -5.14062 H 592.5 v 5.14062 h -7.38281 v -5.14062 h -8.33985 v 37.26172 l -4.63672,2.46875 v 57.6914 c -1.64453,-0.0742 -3.29687,-0.14453 -4.9414,-0.21093 V 280.95312 c 0,-1.41406 -1.14844,-2.55859 -2.5586,-2.55859 h -10.89453 c -1.41406,0 -2.55859,1.14453 -2.55859,2.55859 v 7.2461 c 0,1.42187 -1.14844,2.5664 -2.56641,2.5664 h -10.8164 c -1.41016,0 -2.5586,-1.14453 -2.5586,-2.5664 v -7.2461 c 0,-1.41406 -1.14453,-2.55859 -2.55859,-2.55859 h -6.69531 v 60.4375 l 1.8125,1.16406 c 2.41797,1.55469 3.87109,4.19922 3.87109,7.08594 v 55.03125 c -2.33203,-0.10156 -4.66406,-0.24219 -6.98047,-0.48437 v -54.5586 c 0,-0.48437 -0.25,-0.93359 -0.66015,-1.19531 l -4.35938,-2.80469 c -0.41406,-0.26562 -0.66406,-0.71875 -0.66406,-1.20312 V 228.17578 c 0,-0.79297 -0.63672,-1.43359 -1.42578,-1.43359 h -7.35157 c -0.78515,0 -1.42578,0.64062 -1.42578,1.43359 v 4.72266 c 0,0.78906 -0.64062,1.42968 -1.43359,1.42968 h -4.92578 c -0.79688,0 -1.4336,-0.64062 -1.4336,-1.42968 v -4.72266 c 0,-0.79297 -0.64062,-1.43359 -1.42968,-1.43359 h -7.34766 c -0.79297,0 -1.43359,0.64062 -1.43359,1.43359 v 4.72266 c 0,0.78906 -0.63672,1.42968 -1.42969,1.42968 h -6.17578 c -0.78906,0 -1.42969,-0.64062 -1.42969,-1.42968 v -4.72266 c 0,-0.79297 -0.63672,-1.43359 -1.42969,-1.43359 h -7.34765 c -0.79297,0 -1.42969,0.64062 -1.42969,1.43359 v 113.69141 c 0,0.48437 -0.25,0.9375 -0.66016,1.20312 l -4.36718,2.80469 c -0.40625,0.26172 -0.65235,0.71094 -0.65235,1.19531 v 56.3086 c -2.32422,0.41406 -4.65234,0.78515 -6.98047,1.125 v -57.42188 c 0,-2.88672 1.44532,-5.53125 3.86719,-7.08594 l 1.8125,-1.16406 v -60.4375 h -6.69531 c -1.41016,0 -2.5586,1.14453 -2.5586,2.55859 v 7.2461 c 0,1.42187 -1.14453,2.5664 -2.55859,2.5664 h -10.81641 c -1.41406,0 -2.5625,-1.14453 -2.5625,-2.5664 v -7.2461 c 0,-1.41406 -1.14453,-2.55859 -2.55859,-2.55859 H 425.9375 c -1.41406,0 -2.55859,1.14453 -2.55859,2.55859 v 124.91407 c 0,0.21093 0.0351,0.41015 0.082,0.60937 -1.91797,-0.082 -3.83594,-0.20703 -5.75,-0.35937 v -59.9375 l -4.64063,-2.46875 v -37.26172 h -8.33594 v 5.14062 H 398.375 v -5.14062 h -8.33984 v 5.14062 h -7.37891 v -5.14062 h -8.33594 v 37.26172 l -4.63672,2.46875 v 55.49218 c -11.63281,1.76563 -22.4414,7.41797 -32.21875,14.04297 -8.80468,5.96094 -17.02734,12.79297 -24.50781,20.35547 l -2.71875,0.6836 c -0.83594,1.53125 0.39844,3.40234 1.79688,4.4375 8.23437,6.14062 19.69921,-0.48047 29.97265,-0.36329 6.59766,0.0781 12.80078,3.04688 19.3125,4.11329 15.94531,2.62109 31.55469,-6.28516 47.70313,-6.84766 10.5664,-0.36719 20.89843,2.85547 31.39062,4.14844 15.28125,1.89062 30.73828,-0.31641 46.12891,-0.8086 18.61719,-0.59375 37.32422,1.34766 55.42578,5.7461 7.55469,1.83203 15.34766,4.11328 22.97266,2.59765 4.21484,-0.83984 8.09375,-2.79687 12.0664,-4.42968 43.42969,-17.87891 58.41797,1.05078 104.92188,-5.48047 13.51562,-2.13282 12.17968,-7.94532 0.91797,-12.94141 z m -559.41797,-64.83984 29.57812,4.82422 c 0.125,0.0234 0.25391,0.0391 0.37891,0.0391 1.1289,0 2.125,-0.82031 2.30859,-1.97266 0.21094,-1.27734 -0.65625,-2.48437 -1.93359,-2.69531 l -29.57422,-4.82813 c -1.27734,-0.21484 -2.48437,0.65235 -2.69141,1.9336 -0.21093,1.28125 0.65625,2.48828 1.9336,2.69922 z m 77.5039,-177.48828 57.77344,46.19921 c 0.42969,0.34375 0.94922,0.51563 1.46094,0.51563 0.6914,0 1.375,-0.30469 1.83594,-0.88281 0.80859,-1.01953 0.64453,-2.4961 -0.36719,-3.30469 l -57.77735,-46.19531 c -1.01171,-0.8125 -2.48828,-0.64063 -3.29687,0.37109 -0.80859,1.00781 -0.64453,2.48828 0.37109,3.29688 z m 159.22657,87.83593 -4.06641,-4.20703 -119.10547,-123.27344 c -0.89844,-0.93359 -2.38672,-0.96093 -3.31641,-0.0586 -0.93359,0.89844 -0.95703,2.38281 -0.0586,3.31641 l 120.49609,124.70703 2.67969,2.77344 c 0.46485,0.48046 1.07422,0.72265 1.6875,0.72265 0.58985,0 1.17188,-0.21875 1.62891,-0.66406 0.92969,-0.89453 0.95703,-2.38281 0.0547,-3.31641 z m -19.94922,-62.76562 c 0.46093,0.625 1.16797,0.94922 1.88281,0.94922 0.48828,0 0.98047,-0.15235 1.40234,-0.46485 1.03516,-0.77734 1.25391,-2.25 0.47657,-3.28515 L 274.43359,113.5 c -0.77343,-1.04687 -2.24218,-1.26172 -3.28125,-0.48047 -1.03906,0.77344 -1.2539,2.24219 -0.48047,3.28125 z m -0.16407,-69.4961 c 0.42969,0.76563 1.22657,1.19922 2.04688,1.19922 0.39062,0 0.78516,-0.10156 1.14844,-0.30468 1.1289,-0.63672 1.52734,-2.06641 0.89453,-3.19532 L 315.59375,87.085938 c -0.63672,-1.132813 -2.06641,-1.527344 -3.19531,-0.894532 -1.13282,0.640625 -1.53125,2.066406 -0.89453,3.199219 z m 100.4336,60.03516 c 0.27734,1.05078 1.22656,1.75391 2.26953,1.75391 0.19531,0 0.39844,-0.0234 0.59375,-0.0742 1.25391,-0.33203 2.00391,-1.6211 1.67969,-2.8711 L 406.28516,51.039062 c -0.32813,-1.257812 -1.60938,-2.007812 -2.86329,-1.675781 -1.2539,0.332031 -2.0039,1.609375 -1.67578,2.871094 z m 16.66406,-99.62109 c 0.15234,1.18359 1.16406,2.04297 2.32813,2.04297 0.0976,0 0.19531,-0.004 0.30078,-0.0117 1.28125,-0.17188 2.1914,-1.34766 2.02734,-2.632815 l -7.46484,-57.992187 c -0.16797,-1.289063 -1.33985,-2.195313 -2.62891,-2.023438 -1.28125,0.164062 -2.19141,1.339844 -2.02734,2.625 z m 425.39063,305.51562 -176.21094,5.96485 c 1.08203,1.43359 2.01562,2.97265 2.78515,4.60546 l 173.58594,-5.87109 c 1.29297,-0.043 2.3086,-1.13281 2.26563,-2.42578 -0.043,-1.29688 -1.11328,-2.30859 -2.42578,-2.27344 z m -13.39844,-94.68359 c -0.375,-1.2461 -1.67969,-1.95313 -2.92578,-1.57813 l -226.23438,67.53907 v 4.90234 l 227.57813,-67.94531 c 1.24609,-0.36719 1.95312,-1.67969 1.58203,-2.91797 z m -76.46094,-67.51953 c -0.67578,-1.10938 -2.12109,-1.46485 -3.22656,-0.79297 l -149.95703,91.19531 c 0.32422,1.46484 0.48437,2.95703 0.48437,4.44531 v 0.75782 l 151.90235,-92.38672 c 1.11328,-0.66797 1.46484,-2.10547 0.79687,-3.21875 z m -6.25,130.80468 c -0.20703,-1.28125 -1.41016,-2.15625 -2.68359,-1.9414 l -120.25,19.64844 c 2.38672,0.14843 4.78515,0.38281 7.1914,0.79687 2.2461,0.39453 4.46875,0.98438 6.64844,1.70703 l 107.16016,-17.51172 c 1.28125,-0.21093 2.14843,-1.41797 1.93359,-2.69922 z m -0.16797,-80.19921 c -0.52344,-1.17579 -1.90625,-1.71485 -3.09765,-1.1875 l -143.1836,63.63671 v 5.14844 l 145.09766,-64.49219 c 1.17578,-0.53125 1.71094,-1.91406 1.18359,-3.10546 z m -76.72265,-39.9961 c -0.81641,-1.01953 -2.28907,-1.17969 -3.29688,-0.36719 l -70.89844,56.67969 v 6.01172 l 73.82422,-59.02734 c 1.01172,-0.8125 1.1836,-2.28125 0.3711,-3.29688 z m -64.96094,-26.125 c -1.03906,-0.77734 -2.50781,-0.55859 -3.28125,0.48438 l -17.35938,23.30468 c 0.70703,1.67188 1.41407,3.35157 2.11719,5.01954 l 19.00781,-25.51954 c 0.76563,-1.04296 0.55078,-2.51562 -0.48437,-3.28906 z m -3.55078,-56.38672 c -1.125,-0.63281 -2.5586,-0.23437 -3.19922,0.89844 l -17.67578,31.4375 c 1.60547,0.3125 3.15625,0.75391 4.60937,1.38672 l 17.15235,-30.53125 c 0.64062,-1.125 0.23437,-2.55859 -0.88672,-3.19141 z m -16.98438,-55.46093 c -1.19922,-0.48438 -2.57422,0.0898 -3.05859,1.29297 l -31.22266,77.28124 c 1.69141,-0.34375 3.45313,-0.49218 5.23047,-0.4414 l 30.34375,-75.08203 c 0.48828,-1.20703 -0.0859,-2.5625 -1.29297,-3.05078 z m -86.54297,20.15234 c -0.0742,0 -0.13672,-0.0117 -0.21484,-0.0117 -1.19531,-0.0508 -2.25391,0.83203 -2.41797,2.03906 l -0.19531,1.5586 -4.33985,33.6289 c 0.0742,0.16016 0.14454,0.33594 0.21485,0.5 1.13672,2.69922 2.27734,5.39844 3.42187,8.09766 l 5.55078,-43.18359 c 0.17188,-1.28516 -0.73828,-2.45704 -2.01953,-2.62891 z m -28.66406,218.30078 0.12109,0.13281 0.008,-0.0469 z M 500.84766,36.820312 h -0.0508 c -1.29296,0 -2.34375,1.042969 -2.34375,2.339844 v 53.929688 c 1.63672,0.34375 3.23047,0.867187 4.7461,1.566406 V 39.160156 c 0,-1.296875 -1.0586,-2.339844 -2.35156,-2.339844 z m -34.0625,101.894528 c -0.16407,-1.27734 -1.34375,-2.1914 -2.625,-2.02734 -1.28516,0.17187 -2.19532,1.34375 -2.02344,2.62891 l 2,15.5625 c 1.20312,-2.86329 2.41797,-5.73438 3.62109,-8.58594 z m -89.17188,-22.17968 c -1.20312,0.48828 -1.78516,1.84375 -1.30078,3.05078 l 32.49219,80.41015 c 0.4375,0.22657 0.87109,0.46875 1.30078,0.71094 1.48047,0.86719 2.89453,1.94141 4.22265,3.09766 0.38672,0.0508 0.76172,0.10547 1.14844,0.16015 l -34.8125,-86.13671 c -0.48047,-1.20313 -1.84765,-1.77735 -3.05078,-1.29297 z m -13.78906,56.35937 c -0.63281,-1.13281 -2.07031,-1.53125 -3.19531,-0.89844 -1.12891,0.63282 -1.53125,2.06641 -0.89454,3.19141 l 15.26954,27.16797 c 1.05468,-1.21875 2.23437,-2.31641 3.52734,-3.29297 z m -3.46485,55.97266 c -0.77343,-1.04297 -2.24609,-1.26172 -3.28515,-0.48438 -1.03906,0.77344 -1.25,2.2461 -0.48047,3.28906 l 9.52734,12.77735 c 0.70313,-1.66797 1.40625,-3.33203 2.10938,-5.00781 z m -64.94531,25.27343 c -1.01172,-0.8125 -2.48828,-0.65234 -3.30078,0.36719 -0.80469,1.01563 -0.64062,2.48438 0.37109,3.29688 l 58.96875,47.14453 v -5.9961 z m -83.21094,-11.03515 c -1.10937,-0.67188 -2.55468,-0.31641 -3.22265,0.79297 -0.67578,1.11328 -0.32813,2.55078 0.78125,3.21875 l 138.41406,84.18359 c 0.53906,-1.48047 1.24609,-2.90625 2.09375,-4.23047 z m -76.76562,66.73437 c -1.23828,-0.375 -2.55078,0.33203 -2.92578,1.57813 -0.3711,1.23828 0.34375,2.55078 1.57812,2.91797 l 212.72657,63.51562 v -4.90625 z m 83.04687,-16.52343 c -1.17968,-0.52735 -2.57031,0.0117 -3.09375,1.1875 -0.52734,1.1914 0.004,2.57421 1.1875,3.10546 l 130.23829,57.88672 v -5.13672 z m -0.57031,79.44531 c -1.28125,-0.21485 -2.48828,0.66015 -2.69531,1.9414 -0.21484,1.28125 0.65234,2.48829 1.93359,2.69922 l 101.96485,16.66407 c 1.8164,-1.32422 3.64453,-2.6211 5.5,-3.8711 z m -98.80078,33.33984 c -1.3164,-0.0351 -2.375,0.97656 -2.42578,2.27344 -0.043,1.29297 0.97266,2.38281 2.26953,2.42578 l 172.71484,5.84375 c 1.33985,-1.71484 2.91407,-3.25 4.66016,-4.53906 z m 726.83594,-41.125 c 0.1914,1.15235 1.18359,1.97266 2.3164,1.97266 0.125,0 0.25,-0.0156 0.38282,-0.0391 l 29.5664,-4.82422 c 1.28125,-0.21094 2.14844,-1.41797 1.9375,-2.69922 -0.20703,-1.28125 -1.41406,-2.14844 -2.6914,-1.9336 l -29.57032,4.82813 c -1.28125,0.21094 -2.14843,1.41797 -1.9414,2.69531 z M 739.64453,230.42969 c 0.46484,0.57812 1.14844,0.88281 1.83594,0.88281 0.50781,0 1.03125,-0.17188 1.46484,-0.51563 l 57.77344,-46.19921 c 1.01562,-0.8086 1.17578,-2.28907 0.36719,-3.29688 -0.8086,-1.01172 -2.28516,-1.18359 -3.29297,-0.37109 L 740.01172,227.125 c -1.01563,0.80859 -1.17578,2.28516 -0.36719,3.30469 z M 641.54297,275.75 c 0.45703,0.44531 1.04687,0.66406 1.63281,0.66406 0.60938,0 1.22656,-0.24219 1.68359,-0.71484 L 768.03906,148.21094 c 0.89844,-0.9336 0.875,-2.41797 -0.0586,-3.31641 -0.9336,-0.90234 -2.42188,-0.88281 -3.31641,0.0547 L 641.48437,272.43359 c -0.89453,0.9336 -0.875,2.42188 0.0586,3.31641 z m 16.60937,-65.59766 c 0.42578,0.3125 0.91407,0.46485 1.40235,0.46485 0.71484,0 1.42187,-0.32422 1.88672,-0.94922 l 69.53515,-93.36719 c 0.76953,-1.03906 0.5586,-2.50781 -0.47656,-3.28125 -1.03906,-0.78125 -2.50781,-0.5664 -3.28516,0.48047 l -69.53906,93.36719 c -0.77344,1.03515 -0.5625,2.50781 0.47656,3.28515 z m 0.25,-69.08593 c 0.36719,0.20312 0.76563,0.30468 1.15235,0.30468 0.82031,0 1.62109,-0.43359 2.04687,-1.19922 l 28.55078,-50.781245 c 0.62891,-1.132813 0.23047,-2.558594 -0.90234,-3.199219 -1.12891,-0.632812 -2.55859,-0.238281 -3.19531,0.894532 l -28.53907,50.785152 c -0.64062,1.12891 -0.23828,2.5586 0.88672,3.19532 z m -100.09765,60.82031 c 0.19531,0.0508 0.39453,0.0742 0.59375,0.0742 1.04297,0 1.99218,-0.70313 2.26953,-1.75391 L 599.90234,52.234375 c 0.33203,-1.261719 -0.41797,-2.539063 -1.67578,-2.871094 -1.25,-0.332031 -2.53515,0.417969 -2.86328,1.675781 L 556.625,199.01562 c -0.32031,1.25 0.42969,2.53907 1.67969,2.8711 z M 539.84766,99.984375 547.3125,41.992188 c 0.16797,-1.289063 1.34375,-2.195313 2.62891,-2.023438 1.28125,0.164062 2.1914,1.339844 2.02343,2.625 l -7.46093,57.99219 c -0.15625,1.18359 -1.16407,2.04297 -2.32422,2.04297 -0.10157,0 -0.19922,-0.004 -0.30078,-0.0117 -1.28907,-0.17188 -2.19141,-1.34766 -2.03125,-2.632815"
         style="fill:#2e82b3;fill-opacity:1;fill-rule:nonzero;stroke:none" />
    </g>
    <path
       id="path11"
       d="m 359.34766,83.890625 c 0,-5.785156 2.60546,-10.957031 6.70703,-14.40625 -0.6211,-0.06641 -1.25,-0.09766 -1.88282,-0.09766 -10.47656,0 -18.95312,8.570312 -18.80859,19.082031 0.14063,10.175781 8.46094,18.464844 18.62891,18.562504 4.67968,0.043 8.97265,-1.625 12.28515,-4.42187 -9.5039,-0.94141 -16.92968,-8.968759 -16.92968,-18.718759 z m 41.89453,287.585935 c 0,-1.26172 -1.01953,-2.28125 -2.27735,-2.28125 h -8.97656 c -1.25781,0 -2.27734,1.01953 -2.27734,2.28125 v 22.42188 h 13.53125 z m 205.22656,0 c 0,-1.26172 -1.02344,-2.28125 -2.28125,-2.28125 h -8.97656 c -1.25782,0 -2.27344,1.01953 -2.27344,2.28125 v 22.42188 h 13.53125 z m -106.21484,0 c 0,-1.26172 -1.01954,-2.28125 -2.27735,-2.28125 h -8.98047 c -1.25781,0 -2.27734,1.01953 -2.27734,2.28125 v 22.42188 h 13.53516 z m -45.5586,-52.76562 h -8.91406 v 7.93359 h 8.91406 z m -12.51562,0 h -8.91407 v 7.93359 h 8.91407 z m 12.51562,-11.82813 c 0,-0.82812 -0.67187,-1.5 -1.5039,-1.5 h -5.91016 c -0.82422,0 -1.5,0.67188 -1.5,1.5 v 8.28516 h 8.91406 z m -12.51562,0 c 0,-0.82812 -0.67188,-1.5 -1.5,-1.5 h -5.91016 c -0.83203,0 -1.50391,0.67188 -1.50391,1.5 v 8.28516 h 8.91407 z m 115.125,11.82813 h -8.90625 v 7.93359 h 8.90625 z m -12.51563,0 h -8.91015 v 7.93359 h 8.91015 z m 12.51563,-11.82813 c 0,-0.82812 -0.67188,-1.5 -1.5,-1.5 h -5.90625 c -0.82813,0 -1.5,0.67188 -1.5,1.5 v 8.28516 h 8.90625 z m -12.51563,0 c 0,-0.82812 -0.66797,-1.5 -1.49609,-1.5 h -5.91406 c -0.82422,0 -1.5,0.67188 -1.5,1.5 v 8.28516 h 8.91015 z M 506,259.59766 h -8.91016 v 7.9375 H 506 Z m -12.51563,0 h -8.91015 v 7.9375 h 8.91015 z M 506,247.76953 c 0,-0.83594 -0.67188,-1.50391 -1.5,-1.50391 h -5.91016 c -0.82812,0 -1.5,0.66797 -1.5,1.50391 v 8.28125 H 506 Z m -12.51563,8.28125 h -8.91015 v -8.28125 c 0,-0.83594 0.67187,-1.50391 1.5039,-1.50391 h 5.91016 c 0.82422,0 1.49609,0.66797 1.49609,1.50391 v 8.28125"
       style="fill:#ffc702;fill-opacity:1;fill-rule:nonzero;stroke:none" />
  </g>
</svg>
