<?xml version="1.0" encoding="UTF-8" standalone="no"?>
<svg
   xmlns:dc="http://purl.org/dc/elements/1.1/"
   xmlns:cc="http://creativecommons.org/ns#"
   xmlns:rdf="http://www.w3.org/1999/02/22-rdf-syntax-ns#"
   xmlns:svg="http://www.w3.org/2000/svg"
   xmlns="http://www.w3.org/2000/svg"
   id="svg12"
   version="1.1"
   viewBox="0 0 311.39844 480.10547"
   height="480.10547pt"
   width="311.39844pt">
  <metadata
     id="metadata16">
    <rdf:RDF>
      <cc:Work
         rdf:about="">
        <dc:format>image/svg+xml</dc:format>
        <dc:type
           rdf:resource="http://purl.org/dc/dcmitype/StillImage" />
      </cc:Work>
    </rdf:RDF>
  </metadata>
  <defs
     id="defs5">
    <clipPath
       id="clip1">
      <path
         id="path2"
         d="M 345.14062,42 H 656.53906 V 523 H 345.14062 Z m 0,0" />
    </clipPath>
  </defs>
  <g
     transform="translate(-345.14062,-42.125)"
     id="surface1">
    <g
       style="clip-rule:nonzero"
       id="g9"
       clip-path="url(#clip1)">
      <path
         id="path7"
         d="m 345.14062,366.35156 c 0,86.17969 69.61719,155.87891 155.69922,155.87891 86.08203,0 155.69922,-69.69922 155.69922,-155.87891 V 277.27734 H 345.14062 Z M 592.48047,107.37109 639.19141,60.609375 620.95312,42.125 569.79297,93.566406 C 548.88281,83.097656 525.75,76.863281 500.83984,76.863281 c -24.91406,0 -48.04687,6.234375 -68.73047,16.703125 L 380.72656,42.125 362.48828,60.609375 409.19922,107.37109 c -38.70313,28.28125 -64.0586,73.70703 -64.0586,125.3711 v 22.26953 h 311.39844 v -22.26953 c 0,-51.66407 -25.35547,-97.08985 -64.05859,-125.3711 z m -158.3711,103.10157 c -12.23046,0 -22.24218,-10.01954 -22.24218,-22.26563 0,-12.25 10.01172,-22.26953 22.24218,-22.26953 12.23438,0 22.2461,10.01953 22.2461,22.26953 0,12.24609 -10.01172,22.26563 -22.2461,22.26563 z m 133.46094,0 c -12.23437,0 -22.24609,-10.01954 -22.24609,-22.26563 0,-12.25 10.01172,-22.26953 22.24609,-22.26953 12.23047,0 22.24219,10.01953 22.24219,22.26953 0,12.24609 -10.01172,22.26563 -22.24219,22.26563 z m 0,0"
         style="fill:#f5de02;fill-opacity:1;fill-rule:nonzero;stroke:none" />
    </g>
  </g>
</svg>
